<?xml version="1.0" encoding="UTF-8"?>
<svg id="Layer_1" data-name="Layer 1" xmlns="http://www.w3.org/2000/svg" viewBox="0 0 3000 3000">
  <defs>
    <style>
      .cls-1 {
        fill: #ed2b47;
      }
    </style>
  </defs>
  <path class="cls-1" d="M1214.81,1611.02c-76.97,8.01-147.43-8.31-212.16-48.05-14.57-8.94-25.67-10.67-38.7,1.77-32.18,30.73-66.15,59.68-96.96,91.69-11.48,11.92-17.95,29.76-23.54,45.99-6.43,18.69,1.02,32.47,20,38.48,14.45,4.57,29.91,6.49,45.07,8.13,19.47,2.11,29.31,13.16,23.82,32.22-10.22,35.5-21.57,70.7-33.45,105.68-5.44,16.02-16.07,19.91-33.14,14.26-45.4-15.02-78.15-46.62-105.06-84.15-32.14-44.81-56.48-93.33-57.26-150.38-.71-51.76,22.27-94.86,49.42-136.72,34.28-52.85,68.09-106.01,101.03-159.7,4.17-6.8,4.12-18.1,2.18-26.43-8.62-37.02-17.67-73.99-28.36-110.46-16.2-55.29-40.62-106.19-88.73-141.37-39.93-29.2-82.49-33.52-126.54-8.72-9.69,5.46-19.11,11.39-28.7,17.04-54.27,31.98-106.66,25.5-149.33-20.98-21.83-23.78-41.48-49.76-60.29-76.05-19.98-27.93-16.51-53.75,7.63-78.5,48.22-49.45,79.96-102.03,90.05-149.18-131.48-27.48-228.04-98.02-280.69-222.72,1.05-1.9,2.11-3.8,3.16-5.7,4.85,1.45,10.24,1.98,14.46,4.48,78.62,46.47,163.28,70.45,254.76,65.38,47.48-2.63,93.43-11.02,138.38-30.88,45.48-20.1,95.26-30.47,143.18-45.04,8.06-2.45,16.23-4.56,30.03-8.42-19.25-16.84-34.44-33.02-52.34-45.22-42.03-28.65-85.36-55.4-128.15-82.95-3.57-2.3-7.83-4.2-10.23-7.44-2.43-3.28-2.94-7.98-4.29-12.06,4.33-.84,8.83-2.91,12.95-2.32,31.94,4.61,63.89,9.26,95.67,14.81,65.12,11.37,130.37,22.2,195.13,35.4,40.75,8.31,78.4,24.23,98.85,64.6,5.43,10.72,9.18,22.28,14.17,34.59,64.05-3.78,126.92,8.34,188.32,30.12,82,29.09,153.32,76.53,221.8,128.74,46.85,35.72,93.27,72,139.6,108.39,78.89,61.96,169.99,94.81,267.01,115.14,95.46,20,191.9,19.31,288.57,18.8,36.56-.19,73.44,.41,109.62,5.04,44.36,5.67,82.25,27.67,118.95,53.28,54.1,37.75,114.57,44.09,177.26,24.47,19.06-5.97,34.54-18.25,45.1-35.93,22.61-37.84,11.26-79.95-29.47-96.59-31.12-12.71-64.37-20.18-96.68-29.99-38.58-11.71-74.69-27.76-100.28-60.66-33.17-42.63-34.83-91.43-22.89-140.87,6.64-27.47,19.08-53.57,29.42-80.09,2.15-5.52,6.56-10.17,12.28-18.76,3.1,9.52,5.84,15.01,6.61,20.77,4.25,31.59,21.74,54.51,46.54,72.87,31.11,23.03,63.21,44.86,93.04,69.44,35.23,29.04,57.51,66.12,59.65,113.33,.15,3.38,3.03,7.98,5.99,9.7,49.59,28.91,68.74,73.02,59.78,127.97-9.17,56.19-47.03,87.72-99.48,104.31-37.76,11.95-76.01,11.6-111.95,6.47,8.95,28.67,19.9,57.71,26.96,87.67,12.5,53.02,8.54,106.69-.63,159.74-14.62,84.61,14.97,147.58,91.71,189.2,15.15,8.22,23.66,17.19,24.74,36.3,5.23,92.62,23.72,182.44,62.72,267.29,1.33,2.88,2.54,5.82,3.94,8.67,14.4,29.38,14.85,29.87-8.58,50.98-22.52,20.29-30.77,44.65-26.25,74.33,3.27,21.5-3.83,29.18-25.88,29.25-49.98,.17-99.97,.22-149.95,.14-23.7-.04-31-8.65-26.43-31.2,9.93-49.07,33.43-91.18,67.16-127.66,6.2-6.71,8.98-12.18,7.93-22.03-7.6-71.45-42.68-127.59-98.52-169.78-72.34-54.65-146.63-106.76-220.9-158.79-17.83-12.49-38.89-20.39-60.76-31.58-3.52,59.91,17.28,106.15,55.23,145.77,4.41,4.6,9.17,8.87,13.96,13.08,16.14,14.15,17.96,24.51,5.22,40.96-53.47,69.01-96.77,144.15-134.6,222.56-7.02,14.54-15.21,24.46-32.22,28.98-24.26,6.45-36,26.44-41.86,49.84-1.54,6.15-2.78,12.45-3.35,18.75-1.3,14.22-9.19,20.81-23.01,20.86-57.43,.23-114.85,.67-172.28,.44-20.61-.08-30.11-15.4-18.8-33.85,15.44-25.2,33.64-48.82,51.84-72.18,41.68-53.5,98.55-90.01,149.59-133.13,18.65-15.75,34.63-35.86,47.81-56.54,12.72-19.97,8.6-33.14-9.13-49.2-14.94-13.54-30.8-26.08-46.31-38.99-53.21-44.31-93.09-98.41-119.56-162.4-.58-1.39-1.57-2.61-2.84-4.68-38.26,10.54-74.32,25.67-102.63,53.96-15.65,15.64-31.49,18.01-51.73,13.27-7.95-1.86-18.99,.24-25.93,4.71-68.74,44.35-141.96,77.23-222.92,91.91-5.22,.95-11.42,6.1-13.93,10.96-28.12,54.42-48.09,111.6-56.16,172.59-3.34,25.21-6.65,50.42-9.87,75.65-1.36,10.67-6.76,17.76-17.54,19.74-34.35,6.3-45.9,30.88-49.06,61.65-4.74,46.14-4.5,46.2-49.8,46.25-46.79,.05-93.59,.11-140.38,0-26.69-.06-33.96-8.91-26.87-34.35,13.38-48.03,40.69-88.15,73.29-124.98,21.49-24.28,44.31-47.41,65.08-72.27,30.7-36.75,46.08-80.78,50.69-138.97Zm-27.04,314.48c1.35-4.32,2.84-7.79,3.49-11.41,6.48-35.94,24.11-63.75,56.77-81.87,5.15-2.86,8.78-11.34,10.02-17.82,5.11-26.48,7.15-53.65,13.69-79.72,26.06-103.81,63.15-201.61,143.93-277.92,55.98-52.88,110.93-107.31,161.69-165.13,92.49-105.33,100.71-225.21,50.74-352.25-3.5-8.9-7.99-16.55-19.4-18.4-46.38-7.55-91.8-6.31-135.99,11.53-132.68,53.57-186.42,166.89-194.99,291.75-3.78,55.13,5.85,108.7,17.28,162.23,11.45,53.6,15.52,107.56-7.88,159.13-12.39,27.32-15.07,56-18.79,84.73-6.62,51.11-19.83,100.18-51.94,141.25-26.45,33.83-56.83,64.55-84.44,97.52-14.32,17.1-26.41,36.07-41.09,56.38h96.89Zm-220.44-1275.68c47.7,58.25,65.76,129.01,70.59,203.58,4.56,70.34-3.66,139.9-24.13,207.43-21.13,69.72-44.69,138.7-66,208.36-11.71,38.28-17.39,77.73-9.51,117.69,10.83,54.93,44.88,93.9,89.57,124.37,56.9,38.79,119.96,52.01,188.01,43.27-27.08-22.4-54.92-42.79-79.7-66.39-116.15-110.62-129.71-258.86-36.38-388.87,15.77-21.97,32.78-43.06,49.27-64.52,37.03-48.16,61.57-101.67,64.5-162.89,4.01-83.73-20.22-158.92-73.77-223.97-33.66-40.88-73.62-69.01-130.22-60.45-4.67,.71-10.65,3.85-12.9,7.69-10.08,17.27-19.03,35.21-29.33,54.69Zm1315.93,859.36c-7.45-63.66,7.17-121.83,13.49-180.67,7.67-71.42,1.52-140.6-30.28-206.04-22.14-45.56-49.95-87.01-95.99-111.37-47.86-25.33-98.1-32.73-146.59-2.57-50.22,31.24-74.37,95.21-65.1,153.81,12.18,76.99,52.3,136.66,110.33,185.56,39.33,33.14,79.66,65.18,120.63,96.28,29.36,22.29,60.53,42.21,93.51,65Zm-1039.7-4.58c8.25-35.14,7.64-65.75-2.81-111.57-18.45-80.91-25.73-162.07-7.7-244.13,30.47-138.66,111.45-232.44,246.95-277.36,16.76-5.55,34.57-7.92,53.36-12.09-110.95-82.85-211.74-177.71-342.58-236.08,44.13,60.06,68.15,123.22,75.32,193.39,7.64,74.71-4.81,145.02-44.74,208.68-21.63,34.48-47.95,66.02-72.17,98.87-30.61,41.53-55.45,86.03-56.17,138.95-1.53,111.94,66.32,181.23,150.53,241.33Zm-355.87-807.94c-21.91,3.62-42.54,7.59-63.33,10.35-34.63,4.61-69.52,7.43-103.99,12.98-23.41,3.77-45.82,11.78-63.41,32.91,16.11-1.8,27.93,1.84,34.91,15.16,7.49,14.28,3.4,27.81-6.4,38.15-10.39,10.96-23.87,18.92-35.29,28.99-16.51,14.55-37.12,27.14-47.49,45.39-17.54,30.88-30.05,64.97-41.65,98.76-10.3,30-8.48,30.37-39.66,30.47-22.45,.08-45.64-3.3-65.98,11.15,12.14,17.45,24.94,33.78,46.28,39.81,23.91,6.75,45.3-.85,64.53-14.24,40.68-28.35,86.27-40.82,134.89-46.58,34.56-4.09,69.32-9.81,99.35-29.86,55.41-36.99,55.28-104.16-.52-139.95-9.69-6.22-21.2-9.58-31.04-15.6-4.77-2.91-10.4-8.83-10.56-13.57-.16-4.51,5.33-11.07,10.02-13.53,12.59-6.61,26.54-10.62,39.12-17.25,33.27-17.53,63-39.22,80.23-73.53Zm803.17,241.23c6.2,35.52,13.85,70.57,18.21,106.03,11.8,95.84-9.28,184.7-70.49,259.49-41.87,51.16-91.45,96.03-137.78,143.53-25.67,26.33-51.73,52.27-77.62,78.39,89.54-18.84,160.41-64.48,215.35-135.36,44.06-56.85,79.45-118.74,111.49-182.9,32.05-64.18,68.26-125.84,118.82-177.66,14.63-14.99,30.73-28.55,47.11-43.64-77.55-11.51-153.94-21.34-225.1-47.89Zm-1176.52,14.8c12.95-44.93,34.74-84.61,59.63-122.94,6.95-10.7,12.93-23.63,14.28-36.09,8.21-75.91,53.84-116.07,124.73-130.23,33.09-6.61,67.33-7.52,101.07-10.78,35.66-3.45,70.27-10.51,99.89-32.07,21.54-15.68,32.8-37.77,31.13-64.4-1.8-28.72-15.31-51.27-44.11-59.88-37.72-11.28-76.04-20.56-114.09-30.71,3.89,9.22,9.59,14.58,14.46,20.6,29.97,37.12,29.96,90.51-32.89,106.18-3.58,.89-7.08,2.1-10.66,2.96-31.3,7.44-63.07,13.31-93.82,22.56-66.11,19.88-110.98,60.73-126.66,130.81-10.86,48.53-24.99,96.56-54.04,137.9-19.7,28.04-42.18,54.13-64.3,82.21,2.41,2.74,6.08,6.9,10.13,11.49,24.83-20.18,52.25-29.57,85.25-27.6Zm379.83,295.44c17.92-51.88,37.17-104.19,54.05-157.25,29.36-92.26,46.12-186.18,29.49-283.32-5.86-34.21-16.31-66.92-33.3-95.74-13.45,17.75-24.91,36.44-39.89,51.67-14.9,15.14-33.34,26.81-51.53,41.02,2.57,2.22,5.99,4.71,8.86,7.72,38.23,40.07,46.25,93.2,20.3,142.16-24.3,45.87-64.24,72.95-114.16,90.19,33.34,25.4,60.28,55.51,78.23,91.86,17.85,36.16,32.02,74.14,47.96,111.7Zm1669.11,598.97c-7.65-19.4-15.16-37.4-21.89-55.69-26.07-70.91-40.84-144.26-47.53-219.42-.51-5.71-5.03-12.18-9.54-16.23-18.9-16.96-40.46-31.35-57.47-49.95-43.85-47.94-61.9-104.39-52.33-169.87,5.57-38.14,10.33-76.91,9.73-115.31-.89-57.29-17.94-110.56-55.38-155.6-20-24.06-43.99-42.93-73.5-54.41,88.52,98.9,111.67,214.65,92.3,342.39-5.55,36.61-8.66,73.66-11.17,110.63-2.54,37.54,4.87,73.47,30.47,102.34,18.96,21.38,41.42,39.63,61.35,60.2,53.76,55.49,79.31,122.67,81.37,199.48,.34,12.52-4.32,20.36-14.17,27.91-24.21,18.54-40.84,43.04-52.69,70.96h81.87c2.25-29.8,10.22-45.6,38.57-77.43Zm-549.77-477.93c-42.43-40.25-76.05-85.88-94.31-141.45-18.3-55.68-24.2-111.95-4.49-169.16-5.5,4.75-10.73,9.4-14.46,15.04-30.94,46.78-63,92.89-91.95,140.88-28.38,47.03-52.79,96.43-80.4,143.95-11.73,20.2-27.17,38.25-43.48,60.81,105.37-61.76,215.39-64.8,329.08-50.07Zm-165.64,51.2c7.86,15.18,14.51,29.49,22.42,43.06,27.77,47.61,67.96,83.81,109.88,118.36,19.14,15.77,34.84,33.9,41.26,58.73,9.21,35.62-1.91,66.91-20.39,96.48-23.32,37.31-57.45,63.42-92.9,88.03-40.13,27.86-75.6,60.59-106.84,100.32h85.31c11.87-39.79,39.31-66.71,73.49-88.13,4.13-2.59,7.21-7.53,9.7-11.98,24.28-43.31,47.67-87.13,72.71-129.99,14.07-24.08,30.76-46.62,46.07-69.55-8.15-10.32-16.01-19.65-23.19-29.47-33.63-46.01-51.18-97-47.4-154.54,.51-7.79,2.03-15.42-10.36-17.05-52.14-6.85-104.19-13.77-159.76-4.27Zm-981.17,380.68c-3.4-1.41-4.78-2.2-6.27-2.56-56.63-13.68-83.85-56.69-70.63-113.28,6.91-29.59,23.08-55.01,44.14-76.05,34.35-34.33,70.68-66.66,105.37-99.08-16.15-27.6-33.95-58-49.83-85.12-33.08,49.63-67.99,101.91-102.75,154.29-4.08,6.15-7.57,12.72-11,19.27-21.69,41.42-24.14,83.58-5.13,126.76,17.32,39.34,41.18,73.96,73.1,102.84,4.04,3.66,9.07,6.23,14.87,10.12,2.99-13.69,5.46-24.95,8.13-37.19Zm1629.55-984.74c-27.35-70.74-92.97-92.63-142.55-134.51-3.85,64.29,16.73,95.49,74.9,114.86,20.81,6.93,42.15,12.3,67.65,19.65ZM507.81,667.06c-59.24,10.8-116.25,2.61-172.69-13.77,43.26,39.52,94.49,59.94,152.59,65.65,6.58-16.98,12.98-33.51,20.1-51.88Z"/>
  <path class="cls-1" d="M243.15,2345.38c62.3-22.89,73.53-147.72-11.51-147.72H108.11c-5.47,0-10.18,3.9-11.21,9.28l-51.08,272.62c-1.33,7.02,4.05,13.54,11.22,13.54H189.42c112.73,0,114.49-133.63,53.72-147.72Zm-58.31,103.04h-47.52c-7.17,0-12.66-6.41-11.54-13.52l8.51-45.74c.89-5.69,5.79-9.87,11.56-9.87l59.14,.3c35.97,0,26.81,68.83-20.15,68.83Zm18.58-132.32h-44.59c-7.17,0-12.66-6.41-11.54-13.5l7.26-39.24c.89-5.7,5.79-9.89,11.56-9.89h50.53c31.7,0,28.18,62.63-13.21,62.63Z"/>
  <path class="cls-1" d="M375.83,2301.59c8.18,0,14.29,7.5,12.63,15.51-6.07,29.3-18.99,85.54-25.62,119.2-5.28,27.06,43.59,37.18,51.96,0,6.78-21.29,22.27-102.67,27.74-127.97,.85-3.95,4.35-6.76,8.4-6.76l51.05,.02c5.53,0,9.62,5.15,8.37,10.54l-37.97,180.97h-146.62s-46.23,0-35.67-54.16c8.54-43.76,22.7-101.86,29.31-127.66,1.46-5.71,6.6-9.69,12.5-9.69h43.94Z"/>
  <path class="cls-1" d="M548.21,2211.43l-54.43,259.59c-2.39,10.92,5.93,21.26,17.11,21.26h40.75c8.23,0,15.35-5.73,17.11-13.78l54.43-259.59c2.39-10.92-5.93-21.26-17.11-21.26h-40.75c-8.23,0-15.35,5.73-17.11,13.78Z"/>
  <path class="cls-1" d="M648.04,2215.76l-48.88,248.57c-3.14,14.36,7.8,27.95,22.5,27.95h29.47c10.82,0,20.19-7.54,22.5-18.11l48.88-248.57c3.14-14.36-7.8-27.95-22.5-27.95h-29.47c-10.82,0-20.19,7.54-22.5,18.11Z"/>
  <path class="cls-1" d="M949.73,2214.42l-51.41,267.89c-1.42,6.5-7.19,11.14-13.84,11.14l-36.19-.36c-9.05,0-15.78-7.93-13.86-16.77l22.88-121.49s-67.05-.02-67.37-.05l-24.66,123.35c-1.89,8.69-9.6,15.32-18.5,15.32h-36.14c-12.09,0-14.39-10.75-11.81-22.54l51.19-258.37c1.89-8.69,9.59-14.89,18.5-14.89h32.79c12.09,0,15.85,10.64,13.26,22.46l-17.22,91.26,69.64,.54,19.38-103.53c1.43-6.52,7.19-11.16,13.86-11.16h35.66c9.05,0,15.78,8.37,13.84,17.2Z"/>
  <path class="cls-1" d="M1080.49,2301.59h-89.69c-22.33,0-41.71,15.43-46.69,37.2l-17.16,94.91c-6.87,29.99,15.92,58.59,46.69,58.59h89.68c22.84,0,42.5-16.12,46.97-38.5l20.93-108.95c5.92-29.64-20.5-43.24-50.73-43.24Zm-9.02,53.7l-15.21,90.44c-1.23,6.08-6.58,10.45-12.78,10.45h-46c-8.3,0-14.5-7.66-12.76-15.78l15.39-90.27c1.28-6.01,6.6-10.31,12.76-10.31l45.8-.19c8.27,0,14.45,7.58,12.79,15.66Z"/>
  <path class="cls-1" d="M1154.19,2308.33l-33.01,175.83c-.86,4.45,2.54,8.57,7.07,8.57h47.53c3.39,0,6.33-2.37,7.04-5.69l21.37-102.66s7.46-36.47,68.22-34.22c3.37,.12,6.39-2.05,7.27-5.3,3.23-11.86,7.64-27.79,10.01-36.34,.94-3.4-1.52-6.81-5.04-6.92-9.03-.3-27.09,1.81-53.81,17.33-5.43,3.15-12.03-1.58-10.7-7.72l.68-3.15c.62-2.87-1.57-5.57-4.5-5.57h-55.06c-3.45,0-6.42,2.45-7.07,5.83Z"/>
  <path class="cls-1" d="M1335.88,2301.59h130.6c6.33,0,10.98,5.93,9.48,12.07l-3.36,13.73c-1.98,8.12-9.26,13.83-17.61,13.83h-73.24c-2.92,0-5.44,2.03-6.07,4.87l-2.52,11.34c-.86,3.88,2.09,7.57,6.07,7.57h44.67c19.83,0,34.53,18.42,30.14,37.76l-13.94,64.38c-3.35,14.71-16.43,25.15-31.51,25.15l-138.13,.44c-5.09,0-8.86-4.72-7.73-9.69l5.21-22.94c.82-3.59,3.99-6.14,7.67-6.17l101.7-.8c2.38-.02,4.43-1.7,4.91-4.04l2.99-14.59c.64-3.13-1.75-6.07-4.95-6.07h-72.2c-15.85,0-27.66-14.62-24.34-30.12l15.59-67.18c3.7-17.24,18.94-29.56,36.58-29.56Z"/>
  <path class="cls-1" d="M1634.32,2303.54l-122.05-1.95c-10.08,0-18.7,7.19-20.49,17.1l-30.48,143.5c-2.89,15.9,9.33,30.55,25.5,30.55h125.4c3.73,0,6.96-2.61,7.73-6.26l5.65-26.45c1.05-4.92-2.7-9.56-7.73-9.56h-91.5c-5.65,0-8.42-1.39-8.55-5.81l1.79-10.36c.73-4.44,4.56-7.68,9.05-7.68h79.26c14.68,0,27.38-10.3,30.4-24.66l16.42-73.3c2.72-12.95-7.16-25.12-20.39-25.12Zm-39.71,52.22l-5.22,21.88c-1.45,6.36-7.11,10.89-13.64,10.89h-28.14c-8.96,0-15.96-3.14-13.99-11.88l5.27-28.29c1.43-6.36,7.11-11.71,13.64-11.71h31.43c8.96,0,14.46,4.77,10.65,19.12Z"/>
  <path class="cls-1" d="M2932.02,2182.86l-80.76,106.85c-3.69,4.88-.21,11.88,5.91,11.88h123.38c5.24,0,8.82-5.29,6.88-10.16l-42.63-106.85c-2.14-5.36-9.31-6.33-12.79-1.72Z"/>
  <path class="cls-1" d="M1898.05,2449.43h-82.25c-3.94,0-7.55,2.2-9.35,5.7l-17.97,34.81c-1.81,3.5-5.41,5.7-9.35,5.7h-42.67c-7.96,0-13.04-8.5-9.27-15.51l124.58-231.36c4.88-9.06,14.33-14.7,24.62-14.7h33.82c13.48,0,25.04,9.62,27.49,22.87l41.9,226.27c1.2,6.47-3.77,12.44-10.35,12.44h-45.83c-5.16,0-9.57-3.75-10.39-8.85l-4.6-28.51c-.82-5.1-5.22-8.85-10.39-8.85Zm-19.53-134.14l-41.07,79.7c-1.41,2.74,.58,6,3.66,6h53.64c2.53,0,4.46-2.26,4.07-4.76l-12.57-79.7c-.62-3.93-5.9-4.78-7.72-1.24Z"/>
  <path class="cls-1" d="M2021.82,2340.62h-10.16c-4.8,0-8.44-4.34-7.61-9.07l6.6-37.46c.65-3.69,3.86-6.39,7.61-6.39h14.01c1.51,0,2.81-1.08,3.09-2.56l.64-3.4c9.68-52.34,45.23-79.16,103.66-78.13,3.7,.07,6.45,3.44,5.83,7.09l-7.23,41.95c-.5,2.91-3.02,5.08-5.97,5.06-20.59-.15-29.49,7.74-32.94,28.13l-.37,1.86h25.86c4.4,0,7.73,3.97,6.96,8.3l-6.83,38.77c-.6,3.38-3.53,5.84-6.96,5.84h-25.71c-1.52,0-2.83,1.1-3.09,2.6l-25.6,145.87c-.66,3.78-3.95,6.54-7.78,6.54h-48.04c-4.91,0-8.63-4.43-7.78-9.27l24.93-142.06c.34-1.92-1.14-3.68-3.09-3.68Z"/>
  <path class="cls-1" d="M2174.08,2495.63h-41.82c-6.71,0-11.79-6.05-10.63-12.66l33.03-188.07c.73-4.16,4.34-7.19,8.56-7.19h46.04c5.41,0,9.51,4.89,8.56,10.22l-4.89,27.42c15.07-19.29,34.77-33.46,56.74-38.17,7.75-1.66,14.74,5.01,13.36,12.82l-7.73,43.74c-.94,5.32-5.56,9.19-10.96,9.19h-8.18c-30.18,0-49.56,10.43-55.89,46.21l-15.56,87.6c-.92,5.15-5.39,8.91-10.63,8.91Z"/>
  <path class="cls-1" d="M2322.2,2287.71h43.2c6.28,0,11.04,5.67,9.95,11.85l-32.97,187.71c-.85,4.83-5.05,8.36-9.95,8.36h-43.2c-6.28,0-11.04-5.67-9.95-11.85l32.97-187.71c.85-4.83,5.05-8.36,9.95-8.36Zm-4.39-55.89c3.73-19.38,21.61-34.65,44.34-34.65s35.03,15.28,31.67,34.65c-3.73,19-21.61,34.28-43.97,34.28s-35.4-15.28-32.04-34.28Z"/>
  <path class="cls-1" d="M2505.92,2284.73c39.18,0,66.8,16.19,79.07,45.25,6.62,15.68-5.23,33-22.25,33h-22.17c-8.28,0-16.19-4.14-20.36-11.29-4.6-7.89-12.7-12.56-25.11-12.56-22.73,0-41.36,17.89-47.32,52.54-6.33,34.65,6.33,52.54,29.06,52.54,13.64,0,23.67-5.2,31.13-14.72,4.53-5.78,11.48-9.13,18.82-9.13h12.29c20.82,0,31.88,24.8,17.79,40.12-22.19,24.12-53.06,38.13-88.6,38.13-61.11,0-97.25-40.99-85.33-106.94,11.55-65.58,61.85-106.94,122.96-106.94Z"/>
  <path class="cls-1" d="M2708.56,2284.73c30.93,0,50.3,14.16,58.5,32.42l1.59-8.96c2.1-11.85,12.4-20.48,24.43-20.48h13.32c15.44,0,27.12,13.94,24.43,29.14l-28.09,158.3c-2.1,11.84-12.4,20.47-24.43,20.47h-12.96c-15.56,0-27.28-14.15-24.37-29.44h0c-14.91,18.26-39.5,32.42-70.43,32.42-50.68,0-83.84-41.73-72.29-107.31,11.55-65.58,59.25-106.57,110.29-106.57Zm8.94,55.52c-23.85,0-48.81,17.89-54.4,51.05-5.96,33.16,12.3,51.79,36.14,51.79s48.81-18.26,54.77-51.42c5.96-33.16-12.3-51.42-36.52-51.42Z"/>
  <g>
    <path class="cls-1" d="M914.41,2630.12h69.8l-2.96,17.35h-24.04l-12.85,72.88h-21.98l12.85-72.88h-23.91l3.08-17.35Z"/>
    <path class="cls-1" d="M1050.67,2630.12c22.11,0,30.98,12.72,28.15,28.41-1.93,11.31-10.03,21.98-24.68,26.09l14.52,35.74h-24.81l-12.72-34.06h-5.27l-6.04,34.06h-21.98l15.94-90.24h36.89Zm-4.5,18h-13.62l-3.99,22.62h13.62c8.23,0,12.86-4.24,14.14-11.31,1.29-6.81-1.93-11.31-10.16-11.31Z"/>
    <path class="cls-1" d="M1115.73,2630.12h21.98l-9.51,53.86c-1.93,10.67,2.31,16.84,12.73,16.84s17.1-6.17,18.9-16.84l9.51-53.86h21.98l-9.51,53.86c-4.5,25.32-23.52,37.28-44.73,37.28s-35.22-12.34-30.72-37.28l9.38-53.86Z"/>
    <path class="cls-1" d="M1267.03,2629.09c21.47,0,35.6,12.08,37.28,31.62h-24.17c-2.31-7.46-8.48-11.31-16.97-11.31-13.5,0-24.42,10.03-27.12,25.71-2.83,15.68,4.63,25.84,18.12,25.84,8.36,0,15.94-3.98,20.95-11.44h24.17c-8.61,19.54-26.99,31.49-48.46,31.49-26.61,0-41.9-18.9-37.15-45.89,4.76-26.99,26.74-46.02,53.35-46.02Z"/>
    <path class="cls-1" d="M1354.83,2680.5l-7.07,39.85h-21.98l15.94-90.24h21.98l-6.94,39.59,37.15-39.59h25.71l-42.8,44.22,28.15,46.02h-26.87l-23.27-39.85Z"/>
    <path class="cls-1" d="M1523.49,2687.96h-13.63l-5.78,32.39h-21.98l15.94-90.24h35.61c22.11,0,30.98,12.47,28.02,29.05-2.57,14.91-15.17,28.79-38.18,28.79Zm1.29-17.22c8.87,0,13.24-4.63,14.52-11.57,1.29-6.94-1.67-11.57-10.41-11.57h-11.95l-3.99,23.14h11.83Z"/>
    <path class="cls-1" d="M1639.83,2704.41h-33.68l-8.23,15.94h-23.01l48.59-90.24h25.45l16.71,90.24h-23.27l-2.57-15.94Zm-7.84-50.13l-17.22,33.42h22.49l-5.27-33.42Z"/>
    <path class="cls-1" d="M1746.91,2630.12c22.11,0,30.98,12.72,28.15,28.41-1.93,11.31-10.03,21.98-24.68,26.09l14.52,35.74h-24.81l-12.72-34.06h-5.27l-6.04,34.06h-21.98l15.94-90.24h36.89Zm-4.5,18h-13.62l-3.99,22.62h13.62c8.23,0,12.86-4.24,14.14-11.31,1.29-6.81-1.93-11.31-10.16-11.31Z"/>
    <path class="cls-1" d="M1807.46,2630.12h69.8l-2.96,17.35h-24.04l-12.85,72.88h-21.98l12.85-72.88h-23.91l3.08-17.35Z"/>
    <path class="cls-1" d="M1926.76,2721.25c-20.18,0-34.96-9.51-32.78-27.89h22.88c-.51,6.3,3.08,10.54,10.54,10.54,6.43,0,10.8-2.83,10.8-8.36,0-14.52-38.56-11.06-38.82-37.79-.26-18.25,14.65-28.92,35.09-28.92s33.16,10.28,31.49,26.99h-23.39c.77-5.66-2.7-9.64-9.26-9.64-6.17,0-10.41,3.21-10.41,8.36,0,13.88,38.95,12.47,38.95,39.08,0,15.94-13.37,27.64-35.09,27.64Z"/>
  </g>
  <polygon class="cls-1" points="878.18 2681.99 23.78 2681.99 26.77 2666.14 881.31 2666.14 878.18 2681.99"/>
  <polygon class="cls-1" points="2924.46 2681.99 2013.42 2681.99 2018.17 2660.85 2929.35 2660.85 2924.46 2681.99"/>
</svg>